<svg width="151" height="151" xmlns="http://www.w3.org/2000/svg" xmlns:xlink="http://www.w3.org/1999/xlink" overflow="hidden"><defs><clipPath id="clip0"><rect x="622" y="342" width="151" height="151"/></clipPath></defs><g clip-path="url(#clip0)" transform="translate(-622 -342)"><path d="M773 417.5C773 459.198 739.198 493 697.5 493 655.802 493 622 459.198 622 417.5 622 375.802 655.802 342 697.5 342 739.198 342 773 375.802 773 417.5Z" fill="#8F39CE"/><path d="M654.65 379.814 689.647 419.506C693.447 423.855 700.052 424.3 704.401 420.501 704.755 420.192 705.087 419.859 705.396 419.506L739.795 380.497C740.057 380.184 740.376 379.924 740.734 379.729 739.242 379.072 737.628 378.738 735.997 378.747L659.174 378.747C657.606 378.731 656.052 379.036 654.607 379.643Z" fill="#FFFFFF"/><path d="M746.069 384.295C745.909 384.716 745.678 385.106 745.386 385.448L710.987 424.457C704.452 431.893 693.126 432.625 685.689 426.09 685.11 425.581 684.565 425.036 684.056 424.457L649.016 384.765 649.016 384.509C647.908 386.352 647.318 388.461 647.309 390.612L647.309 444.388C647.309 450.941 652.621 456.253 659.174 456.253 659.188 456.253 659.202 456.253 659.217 456.253L736.04 456.253C742.569 456.277 747.881 451.003 747.904 444.474 747.905 444.445 747.905 444.417 747.904 444.388L747.904 390.612C747.9 388.376 747.264 386.186 746.069 384.295Z" fill="#FFFFFF"/></g></svg>