<svg width="373" height="373" xmlns="http://www.w3.org/2000/svg" xmlns:xlink="http://www.w3.org/1999/xlink" overflow="hidden"><defs><clipPath id="clip0"><rect x="453" y="173" width="373" height="373"/></clipPath><linearGradient x1="639.505" y1="173" x2="639.505" y2="546" gradientUnits="userSpaceOnUse" spreadMethod="pad" id="fill1"><stop offset="0" stop-color="#19AEFF"/><stop offset="1" stop-color="#0065E7"/></linearGradient></defs><g clip-path="url(#clip0)" transform="translate(-453 -173)"><path d="M826.01 359.505C826.01 462.509 742.509 546.01 639.505 546.01 536.501 546.01 453 462.509 453 359.505 453 256.501 536.501 173 639.505 173 742.509 173 826.01 256.501 826.01 359.505Z" fill="url(#fill1)"/><path d="M602.957 479.839 647.688 479.839 647.688 376.64 680.739 376.64 687.343 334.957 647.688 334.957 647.688 303.445C647.688 291.755 658.878 285.141 669.548 285.141L688.871 285.141 688.871 250.571 654.302 249.053C621.261 247.054 602.957 272.942 602.957 303.954L602.957 334.927 565.341 334.927 565.341 376.61 602.957 376.61Z" fill="#FFFFFF" fill-rule="evenodd"/></g></svg>