<svg xmlns="http://www.w3.org/2000/svg" xmlns:xlink="http://www.w3.org/1999/xlink" width="1080" zoomAndPan="magnify" viewBox="0 0 810 809.999993" height="1080" preserveAspectRatio="xMidYMid meet" version="1.0"><defs><clipPath id="830e3de52e"><path d="M 185 54.242188 L 531 54.242188 L 531 399 L 185 399 Z M 185 54.242188 " clip-rule="nonzero"/></clipPath></defs><path fill="#38b6ff" d="M 230.445312 587.0625 C 185.898438 547.554688 174.785156 506.394531 208.855469 467.246094 L 131.109375 352.523438 L 81.757812 409.226562 C 50.34375 465.832031 89.886719 555.992188 181.09375 643.769531 C 272.296875 731.542969 369.421875 755.546875 421.753906 736.441406 L 461.394531 670.386719 L 342.542969 608.105469 C 299.652344 653.988281 264.808594 617.535156 230.445312 587.0625 Z M 230.445312 587.0625 " fill-opacity="1" fill-rule="nonzero"/><path fill="#38b6ff" d="M 587.664062 272.214844 C 573.429688 272.214844 559.539062 273.9375 546.339844 277.148438 C 529.351562 340.707031 480.792969 391.414062 418.578125 411.71875 C 416.511719 422.273438 415.476562 433.171875 415.476562 444.300781 C 415.476562 475.621094 423.859375 504.875 438.4375 530.117188 L 438.4375 593.441406 L 501.800781 593.441406 C 527.054688 608.011719 556.328125 616.386719 587.664062 616.386719 C 682.710938 616.386719 759.851562 539.292969 759.851562 444.300781 C 759.851562 349.3125 682.710938 272.214844 587.664062 272.214844 Z M 587.664062 570.5 C 574.984375 570.5 564.707031 560.226562 564.707031 547.554688 C 564.707031 534.882812 574.984375 524.609375 587.664062 524.609375 C 600.34375 524.609375 610.621094 534.878906 610.621094 547.554688 C 610.621094 560.226562 600.34375 570.5 587.664062 570.5 Z M 614.6875 452.042969 C 613.515625 467.121094 601.769531 478.71875 587.664062 478.71875 C 573.5625 478.71875 561.816406 467.121094 560.644531 452.042969 L 553.347656 358.121094 C 551.675781 336.578125 567.515625 318.105469 587.664062 318.105469 C 607.8125 318.105469 623.652344 336.578125 621.980469 358.121094 Z M 614.6875 452.042969 " fill-opacity="1" fill-rule="nonzero"/><g clip-path="url(#830e3de52e)"><path fill="#38b6ff" d="M 208.855469 375.46875 L 272.21875 375.46875 C 297.472656 390.039062 326.746094 398.414062 358.082031 398.414062 C 453.128906 398.414062 530.269531 321.316406 530.269531 226.328125 C 530.269531 131.335938 453.128906 54.242188 358.082031 54.242188 C 263.035156 54.242188 185.898438 131.335938 185.898438 226.328125 C 185.898438 257.644531 194.277344 286.902344 208.855469 312.140625 Z M 449.914062 191.910156 C 462.59375 191.910156 472.875 202.179688 472.875 214.855469 C 472.875 227.527344 462.59375 237.800781 449.914062 237.800781 C 437.238281 237.800781 426.957031 227.527344 426.957031 214.855469 C 426.957031 202.183594 437.238281 191.910156 449.914062 191.910156 Z M 358.082031 191.910156 C 370.761719 191.910156 381.042969 202.179688 381.042969 214.855469 C 381.042969 227.527344 370.761719 237.800781 358.082031 237.800781 C 345.40625 237.800781 335.125 227.527344 335.125 214.855469 C 335.125 202.183594 345.40625 191.910156 358.082031 191.910156 Z M 266.25 191.910156 C 278.929688 191.910156 289.207031 202.179688 289.207031 214.855469 C 289.207031 227.527344 278.929688 237.800781 266.25 237.800781 C 253.570312 237.800781 243.292969 227.527344 243.292969 214.855469 C 243.292969 202.183594 253.570312 191.910156 266.25 191.910156 Z M 266.25 191.910156 " fill-opacity="1" fill-rule="nonzero"/></g></svg>