<svg width="373" height="373" xmlns="http://www.w3.org/2000/svg" xmlns:xlink="http://www.w3.org/1999/xlink" overflow="hidden"><defs><clipPath id="clip0"><rect x="206" y="104" width="373" height="373"/></clipPath><linearGradient x1="253.908" y1="165.705" x2="531.102" y2="415.295" gradientUnits="userSpaceOnUse" spreadMethod="pad" id="fill1"><stop offset="0" stop-color="#0496FB"/><stop offset="0.14" stop-color="#3F72FF"/><stop offset="0.28" stop-color="#784AFF"/><stop offset="0.42" stop-color="#B038EE"/><stop offset="0.57" stop-color="#CD40BE"/><stop offset="0.72" stop-color="#FF415A"/><stop offset="0.86" stop-color="#F7941E"/><stop offset="0.98" stop-color="#FFE800"/><stop offset="1" stop-color="#FFE800"/></linearGradient></defs><g clip-path="url(#clip0)" transform="translate(-206 -104)"><path d="M579.01 290.505C579.01 393.509 495.509 477.01 392.505 477.01 289.501 477.01 206 393.509 206 290.505 206 187.501 289.501 104 392.505 104 495.509 104 579.01 187.501 579.01 290.505Z" fill="url(#fill1)"/><path d="M342.519 182.83 442.431 182.83C474.715 182.956 500.858 209.094 500.989 241.378L500.989 340.81C500.841 373.068 474.728 399.181 442.471 399.329L342.559 399.329C310.275 399.203 284.132 373.065 284.001 340.781L284.001 241.378C284.149 209.121 310.262 183.008 342.519 182.86ZM450.754 220.637 450.754 220.637C457.58 220.728 463.091 226.24 463.182 233.066L463.182 233.066C463.091 239.892 457.58 245.403 450.754 245.495L450.754 245.495C443.978 245.584 438.413 240.163 438.324 233.388 438.323 233.28 438.323 233.173 438.324 233.066L438.324 233.066C438.236 226.29 443.656 220.726 450.432 220.637 450.539 220.635 450.646 220.635 450.753 220.637ZM392.235 232.027 392.755 232.027C424.866 232.027 451.793 258.953 451.793 291.065L451.793 291.065C451.793 323.696 424.816 350.102 392.755 350.102L392.235 350.102C360.134 350.102 333.717 323.696 333.717 291.065L333.717 291.065C333.717 258.953 360.134 232.027 392.235 232.027ZM392.235 252.229 392.755 252.229C414.141 252.381 431.443 269.678 431.6 291.064L431.6 291.065C431.6 312.815 413.986 330.42 392.755 330.42L392.235 330.42C371.004 330.42 353.4 312.815 353.4 291.065L353.4 291.065C353.552 269.68 370.85 252.381 392.235 252.229ZM343.039 201.474 441.951 201.474C464.249 201.501 482.318 219.57 482.346 241.868L482.346 340.291C482.318 362.589 464.249 380.658 441.951 380.685L343.039 380.685C320.741 380.658 302.672 362.589 302.645 340.291L302.644 241.868C302.672 219.57 320.741 201.501 343.039 201.474Z" fill="#FFFFFF" fill-rule="evenodd"/></g></svg>