<svg width="65" height="64" viewBox="0 0 65 64" fill="none" xmlns="http://www.w3.org/2000/svg">
<g clip-path="url(#clip0_2194_7943)">
<path opacity="0.35" d="M15.0091 48C20.1638 48 24.3424 43.8214 24.3424 38.6667C24.3424 33.512 20.1638 29.3334 15.0091 29.3334C9.85446 29.3334 5.67578 33.512 5.67578 38.6667C5.67578 43.8214 9.85446 48 15.0091 48Z" fill="#069ADE"/>
<path d="M24.3418 61.3333H5.67513C2.72846 61.3333 0.341797 58.9466 0.341797 56C0.341797 53.0533 2.72846 50.6666 5.67513 50.6666H24.3418C27.2885 50.6666 29.6751 53.0533 29.6751 56C29.6751 58.9466 27.2858 61.3333 24.3418 61.3333Z" fill="#069ADE"/>
<path opacity="0.35" d="M49.6751 48C54.8298 48 59.0085 43.8214 59.0085 38.6667C59.0085 33.512 54.8298 29.3334 49.6751 29.3334C44.5205 29.3334 40.3418 33.512 40.3418 38.6667C40.3418 43.8214 44.5205 48 49.6751 48Z" fill="#069ADE"/>
<path d="M59.0078 61.3333H40.3411C37.3945 61.3333 35.0078 58.9466 35.0078 56C35.0078 53.0533 37.3945 50.6666 40.3411 50.6666H59.0078C61.9545 50.6666 64.3411 53.0533 64.3411 56C64.3411 58.9466 61.9518 61.3333 59.0078 61.3333Z" fill="#069ADE"/>
<path d="M48.3424 21.3333C49.8152 21.3333 51.0091 20.1394 51.0091 18.6667C51.0091 17.1939 49.8152 16 48.3424 16C46.8697 16 45.6758 17.1939 45.6758 18.6667C45.6758 20.1394 46.8697 21.3333 48.3424 21.3333Z" fill="#069ADE"/>
<path d="M48.3424 7.99996C49.8152 7.99996 51.0091 6.80605 51.0091 5.33329C51.0091 3.86053 49.8152 2.66663 48.3424 2.66663C46.8697 2.66663 45.6758 3.86053 45.6758 5.33329C45.6758 6.80605 46.8697 7.99996 48.3424 7.99996Z" fill="#069ADE"/>
<path d="M16.3424 21.3333C17.8152 21.3333 19.0091 20.1394 19.0091 18.6667C19.0091 17.1939 17.8152 16 16.3424 16C14.8697 16 13.6758 17.1939 13.6758 18.6667C13.6758 20.1394 14.8697 21.3333 16.3424 21.3333Z" fill="#069ADE"/>
<path d="M16.3424 7.99996C17.8152 7.99996 19.0091 6.80605 19.0091 5.33329C19.0091 3.86053 17.8152 2.66663 16.3424 2.66663C14.8697 2.66663 13.6758 3.86053 13.6758 5.33329C13.6758 6.80605 14.8697 7.99996 16.3424 7.99996Z" fill="#069ADE"/>
<path opacity="0.35" d="M43.0075 13.3333C43.0075 6.62399 36.8155 1.36266 29.8342 2.95199C26.0422 3.81599 22.9489 6.85866 22.0102 10.632C21.1889 13.936 21.9275 17.0347 23.6182 19.424C24.6875 20.936 25.6315 22.536 26.2155 24.296L27.0075 26.6667H37.6742L38.4582 24.3147C39.0582 22.512 40.0502 20.8907 41.1302 19.328C42.3089 17.624 43.0075 15.5653 43.0075 13.3333Z" fill="#069ADE"/>
<path d="M32.3411 32C29.3945 32 27.0078 29.6133 27.0078 26.6666H37.6745C37.6745 29.6133 35.2851 32 32.3411 32Z" fill="#069ADE"/>
</g>
<defs>
<clipPath id="clip0_2194_7943">
<rect width="64" height="64" fill="white" transform="translate(0.341797)"/>
</clipPath>
</defs>
</svg>
