<svg width="65" height="64" viewBox="0 0 65 64" fill="none" xmlns="http://www.w3.org/2000/svg">
<g clip-path="url(#clip0_2194_7864)">
<path d="M37.6745 50.6667C39.1472 50.6667 40.3411 49.4728 40.3411 48C40.3411 46.5273 39.1472 45.3334 37.6745 45.3334C36.2017 45.3334 35.0078 46.5273 35.0078 48C35.0078 49.4728 36.2017 50.6667 37.6745 50.6667Z" fill="#069ADE"/>
<path d="M27.0085 50.6667C28.4812 50.6667 29.6751 49.4728 29.6751 48C29.6751 46.5273 28.4812 45.3334 27.0085 45.3334C25.5357 45.3334 24.3418 46.5273 24.3418 48C24.3418 49.4728 25.5357 50.6667 27.0085 50.6667Z" fill="#069ADE"/>
<path d="M16.3424 50.6667C17.8152 50.6667 19.0091 49.4728 19.0091 48C19.0091 46.5273 17.8152 45.3334 16.3424 45.3334C14.8697 45.3334 13.6758 46.5273 13.6758 48C13.6758 49.4728 14.8697 50.6667 16.3424 50.6667Z" fill="#069ADE"/>
<path d="M16.3424 40C17.8152 40 19.0091 38.8061 19.0091 37.3333C19.0091 35.8605 17.8152 34.6666 16.3424 34.6666C14.8697 34.6666 13.6758 35.8605 13.6758 37.3333C13.6758 38.8061 14.8697 40 16.3424 40Z" fill="#069ADE"/>
<path d="M27.0085 40C28.4812 40 29.6751 38.8061 29.6751 37.3333C29.6751 35.8605 28.4812 34.6666 27.0085 34.6666C25.5357 34.6666 24.3418 35.8605 24.3418 37.3333C24.3418 38.8061 25.5357 40 27.0085 40Z" fill="#069ADE"/>
<path d="M37.6745 40C39.1472 40 40.3411 38.8061 40.3411 37.3333C40.3411 35.8605 39.1472 34.6666 37.6745 34.6666C36.2017 34.6666 35.0078 35.8605 35.0078 37.3333C35.0078 38.8061 36.2017 40 37.6745 40Z" fill="#069ADE"/>
<path d="M48.3424 40C49.8152 40 51.0091 38.8061 51.0091 37.3333C51.0091 35.8605 49.8152 34.6666 48.3424 34.6666C46.8697 34.6666 45.6758 35.8605 45.6758 37.3333C45.6758 38.8061 46.8697 40 48.3424 40Z" fill="#069ADE"/>
<path d="M48.3424 29.3333C49.8152 29.3333 51.0091 28.1394 51.0091 26.6667C51.0091 25.1939 49.8152 24 48.3424 24C46.8697 24 45.6758 25.1939 45.6758 26.6667C45.6758 28.1394 46.8697 29.3333 48.3424 29.3333Z" fill="#069ADE"/>
<path d="M37.6745 29.3333C39.1472 29.3333 40.3411 28.1394 40.3411 26.6667C40.3411 25.1939 39.1472 24 37.6745 24C36.2017 24 35.0078 25.1939 35.0078 26.6667C35.0078 28.1394 36.2017 29.3333 37.6745 29.3333Z" fill="#069ADE"/>
<path d="M27.0085 29.3333C28.4812 29.3333 29.6751 28.1394 29.6751 26.6667C29.6751 25.1939 28.4812 24 27.0085 24C25.5357 24 24.3418 25.1939 24.3418 26.6667C24.3418 28.1394 25.5357 29.3333 27.0085 29.3333Z" fill="#069ADE"/>
<path opacity="0.35" d="M25.8831 18.6666C23.8245 23.3706 19.1391 26.6666 13.6751 26.6666C11.7765 26.6666 9.97646 26.256 8.3418 25.5413V48C8.3418 52.4186 11.9231 56 16.3418 56H48.3418C52.7605 56 56.3418 52.4186 56.3418 48V18.6666H25.8831Z" fill="#069ADE"/>
<path d="M48.3418 8H25.8831C26.5978 9.63467 27.0085 11.4347 27.0085 13.3333C27.0085 15.232 26.5978 17.032 25.8831 18.6667C23.8245 23.3707 19.1391 26.6667 13.6751 26.6667C11.7765 26.6667 9.97646 26.256 8.3418 25.5413V31.216C10.0325 31.72 11.8218 32 13.6751 32C22.1285 32 29.2618 26.376 31.5578 18.6667H56.3418V16C56.3418 11.5813 52.7605 8 48.3418 8Z" fill="#069ADE"/>
<path opacity="0.35" d="M13.6751 26.6667C21.0389 26.6667 27.0085 20.6971 27.0085 13.3333C27.0085 5.96954 21.0389 0 13.6751 0C6.31133 0 0.341797 5.96954 0.341797 13.3333C0.341797 20.6971 6.31133 26.6667 13.6751 26.6667Z" fill="#069ADE"/>
<path d="M19.356 16.1867L16.2574 12.3174L15.676 5.33337C15.596 4.37337 14.8334 3.58404 13.844 3.50137C12.7374 3.40804 11.7694 4.22937 11.676 5.33337L11.0094 13.3334L11.004 13.4054C10.9534 14.08 11.2254 14.7654 11.7907 15.2187L16.5294 19.0134C17.2494 19.5894 18.2947 19.6134 19.044 19.0134C19.9107 18.32 20.052 17.0534 19.356 16.1867Z" fill="#069ADE"/>
</g>
<defs>
<clipPath id="clip0_2194_7864">
<rect width="64" height="64" fill="white" transform="translate(0.341797)"/>
</clipPath>
</defs>
</svg>
