<svg width="65" height="64" viewBox="0 0 65 64" fill="none" xmlns="http://www.w3.org/2000/svg">
<path opacity="0.35" d="M51.0091 53.3333H13.6758C9.25711 53.3333 5.67578 49.752 5.67578 45.3333V18.6666C5.67578 14.248 9.25711 10.6666 13.6758 10.6666H51.0091C55.4278 10.6666 59.0091 14.248 59.0091 18.6666V45.3333C59.0091 49.752 55.4278 53.3333 51.0091 53.3333Z" fill="#069ADE"/>
<path d="M27.0078 18.6666C26.5118 18.6666 22.1705 18.6666 21.6745 18.6666C20.2025 18.6666 19.0078 19.8613 19.0078 21.3333C19.0078 22.8053 20.2025 24 21.6745 24C22.1705 24 26.5118 24 27.0078 24C28.4798 24 29.6745 22.8053 29.6745 21.3333C29.6745 19.8613 28.4798 18.6666 27.0078 18.6666Z" fill="#069ADE"/>
<path d="M13.6745 24C15.1472 24 16.3411 22.8061 16.3411 21.3333C16.3411 19.8605 15.1472 18.6666 13.6745 18.6666C12.2017 18.6666 11.0078 19.8605 11.0078 21.3333C11.0078 22.8061 12.2017 24 13.6745 24Z" fill="#069ADE"/>
<path d="M27.0078 29.3334C26.5118 29.3334 22.1705 29.3334 21.6745 29.3334C20.2025 29.3334 19.0078 30.528 19.0078 32C19.0078 33.472 20.2025 34.6667 21.6745 34.6667C22.1705 34.6667 26.5118 34.6667 27.0078 34.6667C28.4798 34.6667 29.6745 33.472 29.6745 32C29.6745 30.528 28.4798 29.3334 27.0078 29.3334Z" fill="#069ADE"/>
<path d="M13.6745 34.6667C15.1472 34.6667 16.3411 33.4728 16.3411 32C16.3411 30.5273 15.1472 29.3334 13.6745 29.3334C12.2017 29.3334 11.0078 30.5273 11.0078 32C11.0078 33.4728 12.2017 34.6667 13.6745 34.6667Z" fill="#069ADE"/>
<path d="M27.0078 40C26.5118 40 22.1705 40 21.6745 40C20.2025 40 19.0078 41.1947 19.0078 42.6667C19.0078 44.1387 20.2025 45.3333 21.6745 45.3333C22.1705 45.3333 26.5118 45.3333 27.0078 45.3333C28.4798 45.3333 29.6745 44.1387 29.6745 42.6667C29.6745 41.1947 28.4798 40 27.0078 40Z" fill="#069ADE"/>
<path d="M13.6745 45.3333C15.1472 45.3333 16.3411 44.1394 16.3411 42.6667C16.3411 41.1939 15.1472 40 13.6745 40C12.2017 40 11.0078 41.1939 11.0078 42.6667C11.0078 44.1394 12.2017 45.3333 13.6745 45.3333Z" fill="#069ADE"/>
<path d="M51.0078 18.6666C50.5118 18.6666 46.1705 18.6666 45.6745 18.6666C44.2025 18.6666 43.0078 19.8613 43.0078 21.3333C43.0078 22.8053 44.2025 24 45.6745 24C46.1705 24 50.5118 24 51.0078 24C52.4798 24 53.6745 22.8053 53.6745 21.3333C53.6745 19.8613 52.4798 18.6666 51.0078 18.6666Z" fill="#069ADE"/>
<path d="M37.6745 24C39.1472 24 40.3411 22.8061 40.3411 21.3333C40.3411 19.8605 39.1472 18.6666 37.6745 18.6666C36.2017 18.6666 35.0078 19.8605 35.0078 21.3333C35.0078 22.8061 36.2017 24 37.6745 24Z" fill="#069ADE"/>
<path d="M51.0078 29.3334C50.5118 29.3334 46.1705 29.3334 45.6745 29.3334C44.2025 29.3334 43.0078 30.528 43.0078 32C43.0078 33.472 44.2025 34.6667 45.6745 34.6667C46.1705 34.6667 50.5118 34.6667 51.0078 34.6667C52.4798 34.6667 53.6745 33.472 53.6745 32C53.6745 30.528 52.4798 29.3334 51.0078 29.3334Z" fill="#069ADE"/>
<path d="M37.6745 34.6667C39.1472 34.6667 40.3411 33.4728 40.3411 32C40.3411 30.5273 39.1472 29.3334 37.6745 29.3334C36.2017 29.3334 35.0078 30.5273 35.0078 32C35.0078 33.4728 36.2017 34.6667 37.6745 34.6667Z" fill="#069ADE"/>
<path d="M51.0078 40C50.5118 40 46.1705 40 45.6745 40C44.2025 40 43.0078 41.1947 43.0078 42.6667C43.0078 44.1387 44.2025 45.3333 45.6745 45.3333C46.1705 45.3333 50.5118 45.3333 51.0078 45.3333C52.4798 45.3333 53.6745 44.1387 53.6745 42.6667C53.6745 41.1947 52.4798 40 51.0078 40Z" fill="#069ADE"/>
<path d="M37.6745 45.3333C39.1472 45.3333 40.3411 44.1394 40.3411 42.6667C40.3411 41.1939 39.1472 40 37.6745 40C36.2017 40 35.0078 41.1939 35.0078 42.6667C35.0078 44.1394 36.2017 45.3333 37.6745 45.3333Z" fill="#069ADE"/>
</svg>
