<svg width="65" height="64" viewBox="0 0 65 64" fill="none" xmlns="http://www.w3.org/2000/svg">
<path d="M53.6751 53.3334V34.176C52.8378 34.4747 51.9498 34.6667 51.0085 34.6667C50.0671 34.6667 49.1791 34.4747 48.3418 34.176V53.3334C48.3418 54.8054 49.5365 56 51.0085 56C52.4805 56 53.6751 54.8054 53.6751 53.3334Z" fill="#069ADE"/>
<path d="M48.3418 10.6667V19.1573C49.1791 18.8587 50.0671 18.6667 51.0085 18.6667C51.9498 18.6667 52.8378 18.8587 53.6751 19.1573V10.6667C53.6751 9.19467 52.4805 8 51.0085 8C49.5365 8 48.3418 9.19467 48.3418 10.6667Z" fill="#069ADE"/>
<path opacity="0.35" d="M51.0078 34.6666C55.4261 34.6666 59.0078 31.0849 59.0078 26.6666C59.0078 22.2483 55.4261 18.6666 51.0078 18.6666C46.5895 18.6666 43.0078 22.2483 43.0078 26.6666C43.0078 31.0849 46.5895 34.6666 51.0078 34.6666Z" fill="#069ADE"/>
<path d="M35.0091 53.3333V47.5093C34.1718 47.8079 33.2838 47.9999 32.3424 47.9999C31.4011 47.9999 30.5131 47.8079 29.6758 47.5093V53.3333C29.6758 54.8053 30.8704 55.9999 32.3424 55.9999C33.8144 55.9999 35.0091 54.8053 35.0091 53.3333Z" fill="#069ADE"/>
<path d="M29.6758 10.6667V32.4907C30.5131 32.192 31.4011 32 32.3424 32C33.2838 32 34.1718 32.192 35.0091 32.4907V10.6667C35.0091 9.19467 33.8144 8 32.3424 8C30.8704 8 29.6758 9.19467 29.6758 10.6667Z" fill="#069ADE"/>
<path opacity="0.35" d="M32.3418 48C36.7601 48 40.3418 44.4183 40.3418 40C40.3418 35.5817 36.7601 32 32.3418 32C27.9235 32 24.3418 35.5817 24.3418 40C24.3418 44.4183 27.9235 48 32.3418 48Z" fill="#069ADE"/>
<path d="M16.3411 53.3334V34.176C15.5038 34.4747 14.6158 34.6667 13.6745 34.6667C12.7331 34.6667 11.8451 34.4747 11.0078 34.176V53.3334C11.0078 54.8054 12.2025 56 13.6745 56C15.1465 56 16.3411 54.8054 16.3411 53.3334Z" fill="#069ADE"/>
<path d="M11.0078 10.6667V19.1573C11.8451 18.8587 12.7331 18.6667 13.6745 18.6667C14.6158 18.6667 15.5038 18.8587 16.3411 19.1573V10.6667C16.3411 9.19467 15.1465 8 13.6745 8C12.2025 8 11.0078 9.19467 11.0078 10.6667Z" fill="#069ADE"/>
<path opacity="0.35" d="M13.6758 34.6666C18.0941 34.6666 21.6758 31.0849 21.6758 26.6666C21.6758 22.2483 18.0941 18.6666 13.6758 18.6666C9.2575 18.6666 5.67578 22.2483 5.67578 26.6666C5.67578 31.0849 9.2575 34.6666 13.6758 34.6666Z" fill="#069ADE"/>
</svg>
