<svg width="65" height="64" viewBox="0 0 65 64" fill="none" xmlns="http://www.w3.org/2000/svg">
<g clip-path="url(#clip0_2194_7826)">
<path d="M41.8807 52.6507L43.0727 48H21.6113L22.8007 52.6507C23.7073 56.1893 26.8967 58.6667 30.55 58.6667H34.1313C37.7873 58.6667 40.9767 56.1893 41.8807 52.6507Z" fill="#069ADE"/>
<path d="M56.3424 7.99996C57.8152 7.99996 59.0091 6.80605 59.0091 5.33329C59.0091 3.86053 57.8152 2.66663 56.3424 2.66663C54.8697 2.66663 53.6758 3.86053 53.6758 5.33329C53.6758 6.80605 54.8697 7.99996 56.3424 7.99996Z" fill="#069ADE"/>
<path d="M56.3424 45.3333C57.8152 45.3333 59.0091 44.1394 59.0091 42.6667C59.0091 41.1939 57.8152 40 56.3424 40C54.8697 40 53.6758 41.1939 53.6758 42.6667C53.6758 44.1394 54.8697 45.3333 56.3424 45.3333Z" fill="#069ADE"/>
<path d="M8.34245 45.3333C9.81521 45.3333 11.0091 44.1394 11.0091 42.6667C11.0091 41.1939 9.81521 40 8.34245 40C6.86969 40 5.67578 41.1939 5.67578 42.6667C5.67578 44.1394 6.86969 45.3333 8.34245 45.3333Z" fill="#069ADE"/>
<path d="M61.6745 26.6667C63.1472 26.6667 64.3411 25.4728 64.3411 24C64.3411 22.5273 63.1472 21.3334 61.6745 21.3334C60.2017 21.3334 59.0078 22.5273 59.0078 24C59.0078 25.4728 60.2017 26.6667 61.6745 26.6667Z" fill="#069ADE"/>
<path opacity="0.35" d="M32.3424 2.66663C27.2811 2.66663 22.6358 4.43729 18.9798 7.38396C17.5638 6.12263 15.7211 5.33329 13.6758 5.33329C9.25711 5.33329 5.67578 8.91463 5.67578 13.3333C5.67578 16.9013 8.02778 19.8906 11.2571 20.92C11.1104 21.928 11.0091 22.952 11.0091 24C11.0091 31.1333 14.5211 37.4293 19.8971 41.304L21.6118 48H43.0731L44.7878 41.304C50.1638 37.4293 53.6758 31.1333 53.6758 24C53.6758 12.2186 44.1238 2.66663 32.3424 2.66663Z" fill="#069ADE"/>
<path d="M24.3409 13.3333C24.3409 12.32 24.7969 11.416 25.5142 10.8107C26.1515 10.2693 26.4315 9.41067 26.1382 8.62667C25.6209 7.25867 24.8875 5.99733 23.9755 4.888C23.4662 4.264 22.6049 4.024 21.8555 4.31467C20.9515 4.66133 19.9115 4.616 19.0075 4.096C18.1009 3.57333 17.5409 2.688 17.3942 1.728C17.2742 0.944 16.6529 0.317333 15.8689 0.186667C15.1569 0.064 14.4235 0 13.6742 0C12.9249 0 12.1915 0.064 11.4795 0.186667C10.6955 0.317333 10.0742 0.944 9.95421 1.728C9.80755 2.688 9.24755 3.57333 8.34088 4.096C7.43688 4.616 6.39688 4.66133 5.49288 4.31467C4.74355 4.024 3.88221 4.264 3.37288 4.888C2.46088 5.99733 1.72755 7.25867 1.21021 8.62667C0.916881 9.408 1.19688 10.2693 1.83421 10.8107C2.55155 11.416 3.00755 12.32 3.00755 13.3333C3.00755 14.3467 2.55155 15.2507 1.83421 15.856C1.19688 16.3973 0.916881 17.2587 1.21021 18.04C1.72755 19.408 2.46088 20.6693 3.37021 21.7787C3.88221 22.4027 4.74088 22.64 5.49288 22.352C6.39688 22.0053 7.43688 22.0507 8.34088 22.5707C9.24755 23.0933 9.80755 23.9787 9.95421 24.9387C10.0742 25.7227 10.6955 26.3493 11.4795 26.48C12.1915 26.6027 12.9249 26.6667 13.6742 26.6667C14.4235 26.6667 15.1569 26.6027 15.8689 26.48C16.6502 26.3467 17.2715 25.72 17.3915 24.936C17.5409 23.9787 18.1009 23.0933 19.0075 22.5707C19.9115 22.048 20.9515 22.0053 21.8555 22.352C22.6075 22.6427 23.4662 22.4027 23.9782 21.7787C24.8902 20.6667 25.6235 19.408 26.1382 18.04C26.4315 17.2587 26.1515 16.3973 25.5142 15.856C24.7969 15.2507 24.3409 14.3467 24.3409 13.3333ZM13.6742 18.6667C10.7275 18.6667 8.34088 16.2773 8.34088 13.3333C8.34088 10.3893 10.7275 8 13.6742 8C16.6209 8 19.0075 10.3893 19.0075 13.3333C19.0075 16.2773 16.6209 18.6667 13.6742 18.6667Z" fill="#069ADE"/>
</g>
<defs>
<clipPath id="clip0_2194_7826">
<rect width="64" height="64" fill="white" transform="translate(0.341797)"/>
</clipPath>
</defs>
</svg>
