<svg width="65" height="64" viewBox="0 0 65 64" fill="none" xmlns="http://www.w3.org/2000/svg">
<path opacity="0.35" d="M32.3411 16C20.5811 16 11.0078 25.5733 11.0078 37.3333C11.0078 38.24 11.0611 39.12 11.1678 40H16.5811C16.4211 39.1467 16.3411 38.24 16.3411 37.3333C16.3411 28.5067 23.5145 21.3333 32.3411 21.3333C41.1678 21.3333 48.3411 28.5067 48.3411 37.3333C48.3411 38.24 48.2611 39.1467 48.1011 40H53.5145C53.6211 39.12 53.6745 38.24 53.6745 37.3333C53.6745 25.5733 44.1011 16 32.3411 16ZM42.3678 49.8133C39.6211 52.0267 36.1545 53.3333 32.3411 53.3333C28.5278 53.3333 25.0611 52.0267 22.3145 49.8133L21.6745 50.6667H15.7278C19.6211 55.5467 25.6211 58.6667 32.3411 58.6667C39.0611 58.6667 45.0611 55.5467 48.9545 50.6667H43.0078L42.3678 49.8133Z" fill="#069ADE"/>
<path d="M13.6751 45.3333C16.6206 45.3333 19.0085 42.9455 19.0085 40C19.0085 37.0544 16.6206 34.6666 13.6751 34.6666C10.7296 34.6666 8.3418 37.0544 8.3418 40C8.3418 42.9455 10.7296 45.3333 13.6751 45.3333Z" fill="#069ADE"/>
<path d="M19.0078 48C18.2478 48 9.10115 48 8.34115 48C5.39448 48 3.00781 50.3867 3.00781 53.3333C3.00781 56.28 5.39448 58.6667 8.34115 58.6667C9.10115 58.6667 18.2478 58.6667 19.0078 58.6667C21.9545 58.6667 24.3411 56.28 24.3411 53.3333C24.3411 50.3867 21.9545 48 19.0078 48Z" fill="#069ADE"/>
<path d="M51.0091 45.3333C53.9546 45.3333 56.3424 42.9455 56.3424 40C56.3424 37.0544 53.9546 34.6666 51.0091 34.6666C48.0636 34.6666 45.6758 37.0544 45.6758 40C45.6758 42.9455 48.0636 45.3333 51.0091 45.3333Z" fill="#069ADE"/>
<path d="M56.3418 48C55.5818 48 46.4351 48 45.6751 48C42.7285 48 40.3418 50.3867 40.3418 53.3333C40.3418 56.28 42.7285 58.6667 45.6751 58.6667C46.4351 58.6667 55.5818 58.6667 56.3418 58.6667C59.2885 58.6667 61.6751 56.28 61.6751 53.3333C61.6751 50.3867 59.2885 48 56.3418 48Z" fill="#069ADE"/>
<path d="M32.3411 13.3333C35.2867 13.3333 37.6745 10.9455 37.6745 7.99996C37.6745 5.05444 35.2867 2.66663 32.3411 2.66663C29.3956 2.66663 27.0078 5.05444 27.0078 7.99996C27.0078 10.9455 29.3956 13.3333 32.3411 13.3333Z" fill="#069ADE"/>
<path d="M37.6758 16C36.9158 16 27.7691 16 27.0091 16C24.0624 16 21.6758 18.3867 21.6758 21.3333C21.6758 24.28 24.0624 26.6667 27.0091 26.6667C27.7691 26.6667 36.9158 26.6667 37.6758 26.6667C40.6224 26.6667 43.0091 24.28 43.0091 21.3333C43.0091 18.3867 40.6224 16 37.6758 16Z" fill="#069ADE"/>
</svg>
