<svg xmlns="http://www.w3.org/2000/svg" xmlns:xlink="http://www.w3.org/1999/xlink" width="1080" zoomAndPan="magnify" viewBox="0 0 810 809.999993" height="1080" preserveAspectRatio="xMidYMid meet" version="1.0"><defs><clipPath id="ce61a30aa8"><path d="M 108.335938 95.574219 L 701.585938 95.574219 L 701.585938 714 L 108.335938 714 Z M 108.335938 95.574219 " clip-rule="nonzero"/></clipPath></defs><g clip-path="url(#ce61a30aa8)"><path fill="#38b6ff" d="M 168.035156 95.726562 C 153.429688 95.726562 141.84375 107.316406 141.84375 121.921875 L 141.84375 712.472656 C 153.496094 709.386719 162.0625 698.492188 162.0625 685.066406 L 162.0625 412.699219 C 162.0625 383.324219 185.925781 359.429688 215.304688 359.429688 L 525.492188 359.492188 L 525.492188 182.609375 C 525.230469 181.527344 525.230469 180.378906 525.492188 179.296875 L 525.492188 160.160156 L 500.710938 160.160156 C 478.882812 160.160156 461.089844 142.371094 461.089844 120.507812 L 461.089844 95.726562 Z M 474.515625 105.246094 L 474.515625 120.507812 C 474.515625 135.148438 486.101562 146.703125 500.710938 146.703125 L 515.972656 146.703125 Z M 188.980469 149.558594 L 269.757812 149.558594 C 273.46875 149.558594 276.488281 152.578125 276.488281 156.320312 L 276.488281 250.523438 C 276.488281 254.230469 273.46875 257.25 269.757812 257.25 L 188.980469 257.25 C 185.269531 257.28125 182.25 254.261719 182.25 250.523438 L 182.25 156.320312 C 182.25 152.578125 185.269531 149.558594 188.980469 149.558594 Z M 195.707031 243.792969 L 262.996094 243.792969 L 262.996094 163.046875 L 195.707031 163.046875 Z M 538.980469 190.191406 L 538.980469 359.527344 L 664.238281 359.558594 L 664.238281 341.636719 C 664.238281 319.449219 646.613281 301.824219 624.457031 301.824219 L 569.507812 301.824219 C 569.441406 301.824219 569.410156 301.824219 569.34375 301.824219 L 569.277344 301.824219 C 569.179688 301.824219 569.082031 301.792969 568.984375 301.792969 C 568.753906 301.792969 568.558594 301.792969 568.359375 301.757812 C 568.128906 301.726562 567.898438 301.691406 567.703125 301.628906 C 567.703125 301.628906 567.703125 301.628906 567.671875 301.628906 C 566.816406 301.429688 565.996094 301.035156 565.273438 300.511719 L 565.273438 300.476562 C 564.355469 299.820312 563.664062 298.9375 563.171875 297.917969 L 563.171875 297.886719 C 563.074219 297.6875 563.007812 297.492188 562.945312 297.292969 C 562.910156 297.292969 562.910156 297.292969 562.910156 297.261719 C 562.84375 297.066406 562.78125 296.867188 562.714844 296.636719 C 562.679688 296.441406 562.648438 296.210938 562.617188 295.980469 C 562.582031 295.75 562.550781 295.554688 562.550781 295.324219 C 562.550781 295.324219 562.550781 295.324219 562.550781 295.292969 C 562.550781 295.226562 562.550781 295.160156 562.550781 295.09375 L 562.550781 226.660156 C 562.550781 215.566406 558.117188 205.621094 550.929688 198.398438 C 547.484375 194.953125 543.445312 192.164062 538.980469 190.191406 Z M 128.417969 191.933594 C 127.5 192.457031 126.578125 192.984375 125.726562 193.574219 C 123.59375 195.019531 121.625 196.625 119.851562 198.429688 C 112.664062 205.652344 108.199219 215.566406 108.199219 226.660156 L 108.199219 685.066406 C 108.199219 698.492188 116.765625 709.386719 128.417969 712.472656 Z M 310.132812 203.421875 L 404.371094 203.421875 C 413.265625 203.484375 413.265625 216.84375 404.371094 216.878906 L 310.132812 216.878906 C 301.203125 216.84375 301.203125 203.484375 310.132812 203.421875 Z M 310.132812 243.792969 L 458.203125 243.792969 C 467.164062 243.824219 467.164062 257.25 458.203125 257.25 L 310.132812 257.25 C 301.171875 257.25 301.171875 243.824219 310.132812 243.792969 Z M 188.980469 284.199219 L 458.203125 284.199219 C 467.128906 284.230469 467.128906 297.589844 458.203125 297.65625 L 188.980469 297.65625 C 185.238281 297.6875 182.21875 294.636719 182.21875 290.925781 C 182.21875 287.183594 185.238281 284.164062 188.980469 284.199219 Z M 188.980469 324.570312 L 458.203125 324.570312 C 461.910156 324.570312 464.964844 327.589844 464.964844 331.300781 C 464.964844 335.007812 461.910156 338.027344 458.203125 338.027344 L 188.980469 338.027344 C 185.269531 338.027344 182.25 335.007812 182.25 331.300781 C 182.25 327.589844 185.269531 324.570312 188.980469 324.570312 Z M 215.304688 372.886719 C 193.148438 372.886719 175.519531 390.542969 175.519531 412.699219 L 175.519531 685.066406 C 175.519531 695.929688 171.449219 705.875 164.789062 713.328125 L 661.941406 713.328125 C 684.097656 713.328125 701.722656 695.699219 701.722656 673.511719 L 701.722656 582.296875 L 701.59375 373.015625 L 533.042969 372.984375 C 532.515625 373.050781 532.023438 373.050781 531.5 372.984375 Z M 438.835938 449.757812 C 439.523438 449.789062 440.179688 449.921875 440.804688 450.152344 L 615.003906 512.777344 C 619.960938 513.859375 621.960938 519.800781 618.710938 523.675781 C 618.679688 523.742188 618.613281 523.804688 618.582031 523.871094 C 618.582031 523.871094 618.546875 523.871094 618.546875 523.90625 C 617.660156 524.890625 616.480469 525.613281 615.199219 525.941406 C 604.300781 529.84375 593.40625 533.75 582.507812 537.691406 L 582.507812 602.976562 C 593.109375 605.960938 600.921875 615.84375 600.921875 627.394531 C 600.921875 641.28125 589.628906 652.734375 575.777344 652.734375 C 561.925781 652.734375 550.601562 641.28125 550.601562 627.394531 C 550.601562 615.84375 558.445312 605.960938 569.050781 602.976562 L 569.050781 542.515625 C 561.566406 545.207031 554.113281 547.898438 546.628906 550.589844 L 546.628906 582.953125 C 546.628906 583.25 546.597656 583.542969 546.566406 583.808594 C 546.269531 587.1875 544.367188 589.910156 542.332031 591.71875 C 540.132812 593.6875 537.605469 595.097656 534.617188 596.378906 C 528.675781 598.972656 520.894531 601.007812 511.441406 602.746094 C 492.503906 606.226562 466.867188 608.324219 438.539062 608.324219 C 410.214844 608.324219 384.609375 606.226562 365.671875 602.746094 C 356.183594 601.007812 348.4375 598.972656 342.464844 596.378906 C 339.511719 595.097656 336.949219 593.6875 334.75 591.71875 C 332.8125 589.976562 330.976562 587.449219 330.550781 584.332031 C 330.484375 583.871094 330.484375 583.414062 330.484375 582.953125 L 330.484375 550.589844 C 307.441406 542.285156 284.398438 534.015625 261.355469 525.710938 C 254.890625 523.511719 255.449219 514.222656 262.109375 512.777344 L 436.308594 450.152344 C 436.898438 449.921875 437.554688 449.789062 438.210938 449.757812 C 438.410156 449.757812 438.640625 449.757812 438.867188 449.757812 Z M 438.539062 463.640625 L 283.511719 519.375 C 299.167969 525.019531 314.828125 530.632812 330.484375 536.277344 C 330.484375 536.015625 330.484375 535.753906 330.550781 535.492188 C 330.878906 532.207031 332.75 529.550781 334.75 527.777344 C 336.949219 525.808594 339.511719 524.398438 342.464844 523.117188 C 348.40625 520.523438 356.183594 518.488281 365.671875 516.75 C 384.609375 513.238281 410.214844 511.167969 438.539062 511.167969 C 466.867188 511.167969 492.503906 513.238281 511.441406 516.75 C 520.894531 518.488281 528.675781 520.523438 534.617188 523.117188 C 537.570312 524.398438 540.132812 525.808594 542.332031 527.777344 C 544.332031 529.550781 546.234375 532.242188 546.566406 535.558594 C 546.597656 535.785156 546.628906 536.050781 546.628906 536.277344 C 562.289062 530.667969 577.945312 525.019531 593.601562 519.375 Z M 438.539062 524.625 C 410.902344 524.625 385.824219 526.695312 368.101562 529.976562 C 359.238281 531.585938 352.148438 533.585938 347.847656 535.457031 C 345.8125 536.34375 344.5 537.199219 343.910156 537.65625 L 343.910156 568.9375 C 349.652344 566.640625 356.941406 564.769531 365.671875 563.160156 C 384.609375 559.683594 410.214844 557.613281 438.539062 557.613281 C 466.867188 557.613281 492.46875 559.683594 511.410156 563.160156 C 520.140625 564.769531 527.429688 566.640625 533.171875 568.9375 L 533.171875 537.65625 C 532.582031 537.199219 531.269531 536.34375 529.234375 535.457031 C 524.933594 533.585938 517.875 531.585938 508.980469 529.976562 C 491.257812 526.695312 466.179688 524.625 438.539062 524.625 Z M 438.539062 571.039062 C 410.902344 571.039062 385.824219 573.140625 368.101562 576.390625 C 359.238281 578.03125 352.148438 580 347.847656 581.871094 C 346.828125 582.328125 346.601562 582.59375 345.945312 582.953125 C 346.601562 583.347656 346.828125 583.609375 347.847656 584.070312 C 352.148438 585.90625 359.238281 587.910156 368.101562 589.519531 C 385.824219 592.800781 410.902344 594.867188 438.539062 594.867188 C 466.179688 594.867188 491.257812 592.800781 508.980469 589.519531 C 517.875 587.875 524.933594 585.941406 529.234375 584.070312 C 530.25 583.609375 530.480469 583.347656 531.136719 582.953125 C 530.480469 582.59375 530.25 582.328125 529.234375 581.871094 C 524.933594 580.03125 517.875 578.03125 508.980469 576.390625 C 491.257812 573.140625 466.179688 571.039062 438.539062 571.039062 Z M 575.746094 615.480469 C 569.246094 615.480469 564.058594 620.699219 564.058594 627.394531 C 564.058594 634.089844 569.246094 639.277344 575.746094 639.277344 C 582.246094 639.277344 587.464844 634.089844 587.464844 627.394531 C 587.464844 620.699219 582.246094 615.480469 575.746094 615.480469 Z M 575.746094 615.480469 " fill-opacity="1" fill-rule="nonzero"/></g></svg>