<svg width="373" height="373" xmlns="http://www.w3.org/2000/svg" xmlns:xlink="http://www.w3.org/1999/xlink" overflow="hidden"><defs><clipPath id="clip0"><rect x="453" y="173" width="373" height="373"/></clipPath><linearGradient x1="500.908" y1="234.705" x2="778.102" y2="484.295" gradientUnits="userSpaceOnUse" spreadMethod="pad" id="fill1"><stop offset="0" stop-color="#0496FB"/><stop offset="0.22" stop-color="#3F72FF"/><stop offset="0.49" stop-color="#784AFF"/><stop offset="0.66" stop-color="#B038EE"/><stop offset="0.77" stop-color="#CD40BE"/><stop offset="1" stop-color="#FF5A5A"/></linearGradient><linearGradient x1="608.302" y1="332.929" x2="672.036" y2="390.328" gradientUnits="userSpaceOnUse" spreadMethod="pad" id="fill2"><stop offset="0" stop-color="#0496FB"/><stop offset="0.22" stop-color="#3F72FF"/><stop offset="0.49" stop-color="#784AFF"/><stop offset="0.66" stop-color="#B038EE"/><stop offset="0.77" stop-color="#CD40BE"/><stop offset="1" stop-color="#FF5A5A"/></linearGradient></defs><g clip-path="url(#clip0)" transform="translate(-453 -173)"><path d="M826.01 359.505C826.01 462.509 742.509 546.01 639.505 546.01 536.501 546.01 453 462.509 453 359.505 453 256.501 536.501 173 639.505 173 742.509 173 826.01 256.501 826.01 359.505Z" fill="url(#fill1)"/><path d="M639.495 244.597C703.818 244.597 755.492 295.212 755.492 357.427 755.492 419.642 703.818 470.237 639.495 470.237 627.142 470.198 614.869 468.24 603.117 464.432L582.036 473.424C569.906 478.7 565.161 473.954 565.161 459.197L565.161 444.42C539.853 423.329 523.508 392.226 523.508 357.427 523.508 295.212 575.701 244.597 639.495 244.597Z" fill="#FFFFFF" fill-rule="evenodd"/><path d="M573.064 385.902 601.039 343.189C604.736 336.865 608.423 330.541 616.335 328.952 622.13 327.373 626.876 329.482 631.622 333.178L656.4 351.632C660.616 354.789 661.675 354.789 665.892 351.632L698.053 327.903C706.486 321.049 713.869 325.265 708.044 334.757L677.461 383.794C677.461 383.794 670.608 394.864 661.116 394.334 661.116 394.334 654.262 394.334 649.516 390.118L623.159 369.556C619.992 367.448 618.414 367.448 614.717 370.086L581.506 395.383C572.015 402.767 566.21 396.442 573.064 385.902Z" fill="url(#fill2)" fill-rule="evenodd"/></g></svg>