<svg xmlns="http://www.w3.org/2000/svg" xmlns:xlink="http://www.w3.org/1999/xlink" width="1080" zoomAndPan="magnify" viewBox="0 0 810 809.999993" height="1080" preserveAspectRatio="xMidYMid meet" version="1.0"><defs><clipPath id="9b9f6f440a"><path d="M 433 325 L 772.09375 325 L 772.09375 664 L 433 664 Z M 433 325 " clip-rule="nonzero"/></clipPath><clipPath id="9e4fb6b061"><path d="M 134.59375 81 L 613 81 L 613 718.5 L 134.59375 718.5 Z M 134.59375 81 " clip-rule="nonzero"/></clipPath></defs><g clip-path="url(#9b9f6f440a)"><path fill="#38b6ff" d="M 602.757812 325.042969 C 509.625 325.042969 433.421875 401.246094 433.421875 494.378906 C 433.421875 587.511719 509.625 663.714844 602.757812 663.714844 C 695.894531 663.714844 772.09375 587.511719 772.09375 494.378906 C 772.09375 401.246094 695.894531 325.042969 602.757812 325.042969 Z M 602.757812 643.792969 C 520.582031 643.792969 453.34375 576.554688 453.34375 494.378906 C 453.34375 412.199219 520.582031 344.964844 602.757812 344.964844 C 684.9375 344.964844 752.171875 412.199219 752.171875 494.378906 C 752.171875 576.554688 684.9375 643.792969 602.757812 643.792969 Z M 602.757812 643.792969 " fill-opacity="1" fill-rule="nonzero"/></g><path fill="#38b6ff" d="M 654.058594 393.277344 L 650.570312 391.78125 C 633.636719 383.316406 612.71875 390.289062 604.253906 407.21875 L 543.988281 525.757812 C 543.988281 525.757812 543.988281 525.757812 543.988281 526.253906 C 543.988281 526.75 543.492188 526.75 543.492188 527.25 C 543.492188 527.746094 543.492188 527.746094 542.992188 528.246094 C 542.992188 528.742188 542.992188 528.742188 542.992188 529.242188 C 542.992188 529.738281 542.992188 529.738281 542.992188 530.238281 C 542.992188 530.238281 542.992188 530.734375 542.992188 530.734375 L 543.492188 589.007812 C 543.492188 592.992188 545.484375 595.980469 548.96875 597.972656 C 552.457031 599.464844 556.441406 599.464844 559.429688 596.976562 L 607.242188 562.113281 C 607.738281 561.613281 608.238281 561.613281 608.238281 561.117188 C 608.238281 561.117188 608.238281 561.117188 608.734375 560.617188 C 609.234375 560.121094 609.730469 559.125 610.230469 558.625 L 669.996094 440.589844 C 674.476562 432.121094 674.976562 422.660156 671.988281 413.695312 C 669 404.730469 662.523438 397.257812 654.058594 393.277344 Z M 596.78125 540.699219 L 566.402344 525.757812 L 607.242188 445.074219 L 637.621094 460.015625 Z M 596.78125 540.699219 " fill-opacity="1" fill-rule="nonzero"/><g clip-path="url(#9e4fb6b061)"><path fill="#38b6ff" d="M 174.4375 718.5 L 572.875 718.5 C 593.296875 718.5 610.230469 703.058594 612.222656 683.636719 C 609.234375 683.636719 605.746094 683.636719 602.757812 683.636719 C 541.5 683.636719 486.714844 654.25 452.347656 608.929688 L 221.753906 608.929688 C 216.273438 608.929688 211.792969 604.445312 211.792969 598.96875 C 211.792969 593.488281 216.273438 589.007812 221.753906 589.007812 L 438.902344 589.007812 C 424.957031 565.101562 415.992188 538.207031 414 509.320312 L 221.753906 509.320312 C 216.273438 509.320312 211.792969 504.835938 211.792969 499.359375 C 211.792969 493.882812 216.273438 489.398438 221.753906 489.398438 L 413.5 489.398438 C 414 461.011719 421.46875 433.617188 433.421875 409.710938 L 221.753906 409.710938 C 216.273438 409.710938 211.792969 405.226562 211.792969 399.75 C 211.792969 394.273438 216.273438 389.789062 221.753906 389.789062 L 444.878906 389.789062 C 479.242188 338.988281 537.015625 305.121094 602.757812 305.121094 C 606.246094 305.121094 609.234375 305.121094 612.71875 305.617188 L 612.71875 120.84375 C 612.71875 98.929688 594.789062 81 572.875 81 L 174.4375 81 C 152.523438 81 134.59375 98.929688 134.59375 120.84375 L 134.59375 678.65625 C 134.59375 700.570312 152.523438 718.5 174.4375 718.5 Z M 528.050781 310.101562 L 221.753906 310.101562 C 216.273438 310.101562 211.792969 305.617188 211.792969 300.140625 C 211.792969 294.664062 216.273438 290.179688 221.753906 290.179688 L 528.050781 290.179688 C 533.53125 290.179688 538.011719 294.664062 538.011719 300.140625 C 538.011719 305.617188 533.53125 310.101562 528.050781 310.101562 Z M 219.261719 190.570312 L 525.5625 190.570312 C 531.039062 190.570312 535.523438 195.054688 535.523438 200.53125 C 535.523438 206.011719 531.039062 210.492188 525.5625 210.492188 L 219.261719 210.492188 C 213.785156 210.492188 209.300781 206.011719 209.300781 200.53125 C 209.300781 195.054688 213.785156 190.570312 219.261719 190.570312 Z M 219.261719 190.570312 " fill-opacity="1" fill-rule="nonzero"/></g></svg>