<svg width="188" height="189" xmlns="http://www.w3.org/2000/svg" xmlns:xlink="http://www.w3.org/1999/xlink" overflow="hidden"><defs><clipPath id="clip0"><rect x="496" y="254" width="188" height="189"/></clipPath></defs><g clip-path="url(#clip0)" transform="translate(-496 -254)"><path d="M188 94C188 145.915 145.915 188 94 188 42.0852 188 2.83784e-06 145.915 2.83784e-06 94 2.83784e-06 42.0852 42.0852 2.83784e-06 94 2.83784e-06 145.915 2.83784e-06 188 42.0852 188 94Z" fill="#006EF5" transform="matrix(1 0 0 1.00532 496 254)"/><path d="M1119.6 923.634 1119.6 847.7C1119.63 839.248 1112.81 832.373 1104.35 832.344 1104.34 832.344 1104.32 832.344 1104.3 832.344L1049.94 832.344C1041.46 832.344 1034.58 839.219 1034.58 847.7L1034.58 923.634ZM1077.09 841.908C1079.63 841.635 1081.91 843.471 1082.19 846.01 1082.46 848.548 1080.62 850.828 1078.08 851.101 1077.76 851.137 1077.42 851.137 1077.09 851.101 1074.56 850.828 1072.72 848.548 1072.99 846.01 1073.23 843.848 1074.93 842.141 1077.09 841.908Z" fill="#FFFFFF" transform="matrix(1 0 0 1.00532 -487.094 -551.307)"/><path d="M1034.58 932.826 1034.58 942.444C1034.58 950.926 1041.46 957.801 1049.94 957.801L1104.3 957.801C1112.75 957.801 1119.6 950.949 1119.6 942.497 1119.6 942.48 1119.6 942.462 1119.6 942.444L1119.6 932.826ZM1077.09 949.246C1074.56 948.973 1072.72 946.693 1072.99 944.155 1073.23 941.993 1074.93 940.286 1077.09 940.053 1079.63 939.78 1081.91 941.616 1082.19 944.155 1082.46 946.693 1080.62 948.972 1078.08 949.246 1077.76 949.281 1077.42 949.281 1077.09 949.246Z" fill="#FFFFFF" transform="matrix(1 0 0 1.00532 -487.094 -551.307)"/></g></svg>