<svg width="373" height="373" xmlns="http://www.w3.org/2000/svg" xmlns:xlink="http://www.w3.org/1999/xlink" overflow="hidden"><defs><clipPath id="clip0"><rect x="138" y="173" width="373" height="373"/></clipPath></defs><g clip-path="url(#clip0)" transform="translate(-138 -173)"><path d="M511.01 359.505C511.01 462.509 427.509 546.01 324.505 546.01 221.501 546.01 138 462.509 138 359.505 138 256.501 221.501 173 324.505 173 427.509 173 511.01 256.501 511.01 359.505Z"/><path d="M306.861 336.795 305.512 336.795 305.512 364.77C302.596 363.883 299.567 363.425 296.52 363.412 279.891 363.112 266.168 376.349 265.869 392.978 265.663 404.408 271.948 414.97 282.093 420.241 272.513 406.411 275.959 387.433 289.789 377.853 294.816 374.371 300.775 372.483 306.891 372.434 309.941 372.409 312.976 372.867 315.883 373.792L315.883 337.704C312.916 337.153 309.908 336.849 306.891 336.795ZM258.613 447.287C271.208 460.472 288.627 467.961 306.861 468.029 343.388 468.029 373.162 438.715 373.162 402.637L373.162 328.702C386.56 340.78 404.337 346.814 422.318 345.387L422.318 309.739C418.917 310.639 415.339 310.639 411.938 309.739L411.938 336.345C393.819 337.778 375.901 331.751 362.332 319.66L362.332 393.595C362.255 429.787 332.853 459.064 296.661 458.988 296.604 458.987 296.547 458.987 296.49 458.987 282.983 458.901 269.805 454.82 258.613 447.257ZM386.24 294.852C377.668 285.391 372.702 272.762 373.162 260.582L363.241 260.582C365.489 274.111 374.511 287.639 386.22 294.852Z" fill="#FF2E56" fill-rule="evenodd"/><path d="M296.49 327.783C259.962 327.783 230.198 357.087 230.198 393.625 230.253 415.101 240.881 435.172 258.613 447.287 233.892 420.695 235.408 379.098 262 354.376 273.847 343.362 289.339 337.103 305.512 336.795L305.512 328.682C302.541 328.162 299.535 327.861 296.52 327.783ZM411.938 309.739 411.938 300.747C402.946 302.555 393.904 299.848 386.24 294.882 393.454 303.005 402.016 308.42 411.938 309.769ZM363.241 260.592C362.712 257.622 362.408 254.616 362.332 251.6L326.703 251.6 326.703 393.625 326.703 393.625C326.703 410.311 313.176 423.838 296.49 423.838 291.46 423.819 286.51 422.581 282.063 420.231 287.91 428.074 297.079 432.743 306.861 432.86 323.607 433.053 337.338 419.635 337.532 402.889 337.533 402.805 337.533 402.721 337.533 402.637L337.534 402.637 337.534 260.592Z" fill="#23F1E7" fill-rule="evenodd"/><path d="M258.613 447.287C269.805 454.85 282.983 458.931 296.49 459.017 332.682 459.188 362.16 429.987 362.331 393.796 362.331 393.739 362.332 393.682 362.332 393.625L362.332 319.69C375.901 331.781 393.819 337.808 411.938 336.375L411.938 309.739C402.016 308.39 393.454 302.975 386.24 294.852 374.511 287.639 365.489 274.111 363.261 260.582L337.554 260.582 337.554 402.637 337.554 402.637C337.5 419.384 323.88 432.916 307.133 432.862 307.049 432.862 306.965 432.861 306.881 432.86 297.099 432.743 287.93 428.074 282.083 420.231 267.325 412.563 261.578 394.383 269.246 379.625 274.518 369.48 285.079 363.196 296.51 363.402 299.557 363.415 302.586 363.873 305.502 364.76L305.502 336.785C269.2 337.476 240.332 367.464 241.022 403.766 241.33 419.938 247.59 435.43 258.603 447.277Z" fill="#FFFFFF" fill-rule="evenodd"/></g></svg>