<svg width="373" height="373" xmlns="http://www.w3.org/2000/svg" xmlns:xlink="http://www.w3.org/1999/xlink" overflow="hidden"><defs><clipPath id="clip0"><rect x="453" y="173" width="373" height="373"/></clipPath></defs><g clip-path="url(#clip0)" transform="translate(-453 -173)"><path d="M826.01 359.505C826.01 462.509 742.509 546.01 639.505 546.01 536.501 546.01 453 462.509 453 359.505 453 256.501 536.501 173 639.505 173 742.509 173 826.01 256.501 826.01 359.505Z" fill="#FE0000"/><path d="M575.682 285.95C596.493 284.282 621.061 283.452 639.795 283.452L639.795 283.452C658.518 283.452 682.667 284.282 703.898 285.95 728.456 288.028 740.945 292.195 744.282 316.753 745.941 327.993 746.78 343.389 746.78 359.215L746.78 359.215C746.78 375.031 745.941 390.847 744.282 401.678 740.945 426.656 728.456 430.402 703.898 432.48 682.667 434.559 658.518 434.978 639.795 434.978L639.795 434.978C621.061 434.978 596.493 434.559 575.682 432.48 551.123 430.402 538.215 426.656 534.888 401.678 533.445 387.57 532.751 373.396 532.809 359.215L532.809 359.215C532.762 345.035 533.456 330.861 534.888 316.753 538.215 292.195 551.123 288.028 575.682 285.95Z" fill="#FFFFFF" fill-rule="evenodd"/><path d="M618.144 327.154 673.935 359.205 618.144 391.677 618.144 327.154Z" fill="#FE0000" fill-rule="evenodd"/></g></svg>